<?xml version="1.0" standalone="no"?>
<!DOCTYPE svg PUBLIC "-//W3C//DTD SVG 20010904//EN"
 "http://www.w3.org/TR/2001/REC-SVG-20010904/DTD/svg10.dtd">
<svg version="1.0" xmlns="http://www.w3.org/2000/svg"
 width="16.000000pt" height="16.000000pt" viewBox="0 0 16.000000 16.000000"
 preserveAspectRatio="xMidYMid meet">
<metadata>
Created by potrace 1.11, written by Peter Selinger 2001-2013
</metadata>
<g transform="translate(0.000000,16.000000) scale(0.000904,-0.000904)"
fill="#000000" stroke="none">
<path d="M1805 16681 c-49 -23 -89 -64 -109 -113 -14 -33 -16 -226 -15 -1775
0 -1349 3 -1734 12 -1719 75 119 234 351 301 440 831 1104 1924 1713 3168
1765 868 36 1732 -193 2297 -611 51 -38 113 -88 137 -110 51 -47 43 -64 74
157 54 378 136 682 241 885 75 147 151 229 254 276 56 26 116 32 2889 280
1557 140 2834 254 2839 254 4 0 7 28 7 63 -1 101 -47 176 -132 211 -34 14
-630 16 -5980 16 -5763 0 -5944 -1 -5983 -19z"/>
<path d="M13245 14100 c-324 -18 -600 -64 -854 -140 -912 -276 -1539 -896
-1751 -1733 -56 -223 -72 -348 -77 -612 -6 -247 5 -407 53 -815 58 -493 129
-736 253 -872 115 -126 260 -159 543 -122 349 45 584 137 1093 429 504 290
830 431 1278 556 l117 32 0 1632 0 1632 -57 6 c-111 12 -439 15 -598 7z"/>
<path d="M5188 13420 c-734 -61 -1348 -451 -1803 -1145 -716 -1093 -931 -2794
-508 -4020 291 -841 886 -1481 1640 -1766 231 -87 437 -128 693 -136 590 -19
1109 144 1513 475 172 141 361 361 493 574 79 128 199 372 274 558 101 251
111 263 164 200 105 -126 196 -924 152 -1338 -80 -751 -353 -1361 -826 -1846
-490 -503 -1116 -804 -1884 -907 -197 -26 -568 -36 -776 -20 -784 59 -1438
308 -2009 765 -190 152 -480 447 -608 621 l-22 30 -1 -1468 c0 -1305 2 -1472
16 -1505 20 -49 60 -90 109 -113 39 -18 149 -19 3316 -19 l3276 0 -8 42 c-4
24 -28 176 -53 338 -341 2209 -722 6635 -771 8950 -3 146 -8 347 -11 447 l-6
182 -52 -26 c-146 -74 -359 -122 -581 -130 -181 -7 -218 1 -269 57 -46 51 -70
133 -96 330 -27 209 -52 307 -106 419 -38 78 -61 109 -128 177 -72 71 -97 89
-197 138 -129 62 -256 99 -423 120 -149 20 -377 27 -508 16z"/>
<path d="M13430 7734 c-468 -53 -868 -177 -1192 -367 -537 -316 -878 -836
-987 -1505 -75 -461 -45 -956 104 -1707 90 -457 225 -991 396 -1577 l64 -218
958 0 c1048 0 996 -3 1061 58 16 15 37 45 47 67 18 39 19 131 19 2653 l0 2612
-177 -1 c-98 -1 -230 -7 -293 -15z"/>
</g>
</svg>
